<?xml version="1.0" standalone="no"?>
<!DOCTYPE svg PUBLIC "-//W3C//DTD SVG 20010904//EN"
 "http://www.w3.org/TR/2001/REC-SVG-20010904/DTD/svg10.dtd">
<svg version="1.0" xmlns="http://www.w3.org/2000/svg"
 width="1280.000000pt" height="1264.000000pt" viewBox="0 0 1280.000000 1264.000000"
 preserveAspectRatio="xMidYMid meet">
<metadata>
Created by potrace 1.15, written by Peter Selinger 2001-2017
</metadata>
<g transform="translate(0.000000,1264.000000) scale(0.100000,-0.100000)"
fill="#000000" stroke="none">
<path d="M5647 12616 c-29 -21 -449 -458 -762 -791 -93 -99 -202 -215 -243
-258 l-75 -78 -726 435 c-970 580 -1049 624 -1089 608 -21 -8 -13 -166 43
-902 26 -327 47 -658 48 -735 l2 -140 -37 -77 c-89 -186 -236 -364 -636 -767
-290 -293 -352 -364 -406 -462 -71 -130 -77 -173 -87 -644 -11 -529 -17 -596
-70 -762 -133 -417 -293 -714 -769 -1428 -519 -778 -668 -1065 -780 -1505
-123 -480 -51 -938 197 -1263 248 -324 668 -516 1131 -517 l122 0 0 -62 c0
-122 40 -216 127 -300 74 -72 141 -102 239 -106 102 -5 179 14 302 73 283 136
428 320 801 1018 335 626 519 843 961 1132 179 117 351 214 815 460 752 399
992 541 1388 822 66 47 121 83 123 81 10 -10 35 -229 45 -386 17 -273 -1 -765
-36 -1002 -57 -378 -259 -919 -493 -1320 -185 -317 -268 -413 -987 -1140 -599
-607 -771 -801 -911 -1031 -189 -309 -297 -683 -311 -1069 -5 -147 6 -363 24
-467 l5 -33 4600 0 4600 0 -6 157 c-3 87 -11 289 -16 448 -80 2242 -473 4528
-1104 6427 -381 1146 -783 1918 -1334 2563 -124 145 -448 466 -582 577 -554
457 -1116 728 -1795 867 -431 87 -961 101 -1403 35 -57 -9 -110 -13 -119 -10
-17 7 -191 362 -398 811 -162 352 -335 712 -356 743 -14 19 -14 19 -42 -2z"/>
</g>
</svg>
